<svg xmlns="http://www.w3.org/2000/svg" width="41.641" height="41.641" viewBox="0 0 41.641 41.641">
    <g transform="translate(-.25 -.25)">
        <circle data-name="Ellipse 14" cx="5" cy="5" r="5" transform="translate(16.07 16.07)" style="fill:none;stroke:#171717;stroke-linecap:round;stroke-linejoin:round;stroke-width:1.5px"/>
        <path data-name="Path 24100" d="M34.572 26.544a3.011 3.011 0 0 0 .6 3.321l.109.109a3.651 3.651 0 1 1-5.164 5.164l-.109-.109a3.035 3.035 0 0 0-5.145 2.153v.31a3.649 3.649 0 0 1-7.3 0v-.164a3.011 3.011 0 0 0-1.963-2.756 3.011 3.011 0 0 0-3.321.6l-.109.109A3.651 3.651 0 1 1 7 30.12l.109-.109a3.035 3.035 0 0 0-2.153-5.145h-.31a3.649 3.649 0 0 1 0-7.3h.164A3.011 3.011 0 0 0 7.568 15.6a3.011 3.011 0 0 0-.6-3.321l-.109-.109A3.651 3.651 0 1 1 12.02 7l.109.109a3.011 3.011 0 0 0 3.321.6h.15a3.011 3.011 0 0 0 1.825-2.755v-.31a3.649 3.649 0 0 1 7.3 0v.164a3.035 3.035 0 0 0 5.145 2.153l.109-.109a3.651 3.651 0 1 1 5.164 5.164l-.109.109a3.011 3.011 0 0 0-.6 3.321v.154a3.011 3.011 0 0 0 2.755 1.825h.31a3.649 3.649 0 0 1 0 7.3h-.164a3.011 3.011 0 0 0-2.763 1.819z" style="fill:none;stroke:#171717;stroke-linecap:round;stroke-linejoin:round;stroke-width:1.5px"/>
    </g>
</svg>
